<?xml version="1.0" encoding="utf-8"?>
<!-- Generator: Adobe Illustrator 26.5.0, SVG Export Plug-In . SVG Version: 6.00 Build 0)  -->
<svg version="1.1" id="Layer_2_00000018215701169020487580000007885689508132168093_"
	 xmlns="http://www.w3.org/2000/svg" xmlns:xlink="http://www.w3.org/1999/xlink" x="0px" y="0px" viewBox="0 0 626.4 720"
	 style="enable-background:new 0 0 626.4 720;" xml:space="preserve">
<style type="text/css">
	.st0{clip-path:url(#SVGID_00000122703841258137195830000011465762480612823439_);}
	.st1{clip-path:url(#SVGID_00000124852081970770012820000009258471713290665125_);}
	.st2{fill-rule:evenodd;clip-rule:evenodd;stroke:#000000;}
	.st3{fill-rule:evenodd;clip-rule:evenodd;fill:#FEFEFE;}
	.st4{clip-path:url(#SVGID_00000049935579510409797050000016122485028911556262_);}
	.st5{clip-path:url(#SVGID_00000083796364304475602970000010589948495450746266_);}
	.st6{fill:#FFFFFF;}
	.st7{font-family:'Lato-Regular';}
	.st8{font-size:126.3552px;}
</style>
<polygon points="4,180.8 4,538.2 313.5,716.9 623,538.2 623,180.8 313.5,2.1 "/>
<g>
	<g>
		<defs>
			<rect id="SVGID_1_" width="626.4" height="720"/>
		</defs>
		<clipPath id="SVGID_00000005965534228885400600000006890685254442661541_">
			<use xlink:href="#SVGID_1_"  style="overflow:visible;"/>
		</clipPath>
		<g style="clip-path:url(#SVGID_00000005965534228885400600000006890685254442661541_);">
			<g>
				<g>
					<defs>
						<rect id="SVGID_00000165938594480935528740000014305882824868339335_" width="626.4" height="720"/>
					</defs>
					<clipPath id="SVGID_00000180359125544455786670000015979343285649061809_">
						<use xlink:href="#SVGID_00000165938594480935528740000014305882824868339335_"  style="overflow:visible;"/>
					</clipPath>
					<g style="clip-path:url(#SVGID_00000180359125544455786670000015979343285649061809_);">
						<path class="st2" d="M622.3,537.7L313.5,716L4.8,537.7V181.2L313.5,2.9l308.8,178.3V537.7z M592.3,198.5v321.9l-278.8,161
							l-278.8-161V198.5l278.8-161"/>
					</g>
				</g>
			</g>
			<g>
				<path class="st3" d="M504.9,588.1L504.9,588.1L504.9,588.1c0.7,1.2,0.9,2.3,0.7,3.4l0,0l0,0c-0.2,1-0.9,1.9-1.9,2.5l0,0l0,0
					c-0.7,0.4-1.3,0.6-2,0.6l0,0l0,0c-0.7,0-1.3-0.2-2-0.7l0,0l0,0c-0.6-0.4-1.1-1-1.6-1.8l0,0l0,0c-0.7-1.2-0.9-2.3-0.7-3.3l0,0
					l0,0c0.2-1,0.9-1.8,1.9-2.5l0,0l0,0c1-0.6,2.1-0.7,3.1-0.4l0,0l0,0C503.4,586.2,504.2,586.9,504.9,588.1z M499.3,591.4
					L499.3,591.4L499.3,591.4c0.5,0.9,1.2,1.6,1.8,1.8l0,0l0,0c0.7,0.3,1.4,0.2,2.1-0.2l0,0l0,0c0.7-0.4,1.2-1,1.2-1.7l0,0l0,0
					c0.1-0.7-0.1-1.5-0.7-2.5l0,0l0,0c-0.5-0.9-1.1-1.5-1.8-1.8l0,0l0,0c-0.7-0.3-1.4-0.2-2.1,0.2l0,0l0,0c-0.7,0.4-1.1,1-1.2,1.7
					l0,0l0,0C498.5,589.6,498.7,590.4,499.3,591.4z M508.1,581.2L508.1,581.2L508.1,581.2c0.3-0.2,0.6-0.3,0.9-0.4l0,0l0.4,1.1l0,0
					c-0.3,0.1-0.6,0.2-0.9,0.4l0,0l0,0c-0.6,0.3-1,0.9-1.1,1.6l0,0l0,0c-0.1,0.7,0,1.5,0.4,2.2l0,0l2.3,4l-1.1,0.6l-4.3-7.4l0.9-0.5
					l0.9,1.3h0.1l0,0c0-0.6,0.1-1.2,0.3-1.7l0,0l0,0C507.2,581.8,507.6,581.5,508.1,581.2z M513.9,578l2.6-1.5l0.4,0.7l-1.3,1l0,0
					c0.2,0.1,0.4,0.2,0.7,0.4l0,0l0,0c0.2,0.2,0.5,0.5,0.6,0.8l0,0l0,0c0.4,0.7,0.5,1.4,0.3,2.2l0,0l0,0c-0.2,0.7-0.8,1.3-1.7,1.8
					l0,0l0,0c-0.2,0.1-0.4,0.2-0.7,0.3l0,0l0,0c-0.3,0.5-0.4,1-0.2,1.4l0,0l0,0c0.1,0.2,0.3,0.3,0.5,0.3l0,0l0,0
					c0.2,0,0.5-0.1,0.9-0.4l0,0l1.3-0.8l0,0c0.8-0.5,1.5-0.7,2.1-0.6l0,0l0,0c0.6,0.1,1.1,0.5,1.5,1.1l0,0l0,0
					c0.5,0.8,0.5,1.6,0.1,2.4l0,0l0,0c-0.4,0.8-1.2,1.6-2.5,2.3l0,0l0,0c-1,0.6-1.8,0.8-2.6,0.8l0,0l0,0c-0.7-0.1-1.3-0.4-1.7-1.1
					l0,0l0,0c-0.3-0.5-0.3-0.9-0.2-1.4l0,0l0,0c0.1-0.5,0.4-1,0.8-1.4l0,0l0,0c-0.2,0-0.5,0-0.7-0.1l0,0l0,0
					c-0.2-0.1-0.4-0.3-0.6-0.5l0,0l0,0c-0.2-0.3-0.2-0.5-0.2-0.8l0,0l0,0c0-0.3,0.1-0.6,0.3-1l0,0l0,0c-0.5,0.1-0.9,0-1.4-0.3l0,0
					l0,0c-0.5-0.2-0.8-0.6-1.1-1.1l0,0l0,0c-0.5-0.8-0.6-1.6-0.4-2.3l0,0l0,0c0.2-0.7,0.8-1.3,1.7-1.9l0,0l0,0
					C513.2,578.2,513.6,578.1,513.9,578L513.9,578z M515.6,588.6L515.6,588.6L515.6,588.6c0.2,0.4,0.6,0.6,1,0.6l0,0l0,0
					c0.5,0,1-0.2,1.6-0.5l0,0l0,0c0.9-0.5,1.6-1.1,1.8-1.6l0,0l0,0c0.3-0.5,0.3-1.1,0-1.5l0,0l0,0c-0.2-0.4-0.5-0.6-0.9-0.6l0,0l0,0
					c-0.3,0-0.8,0.2-1.5,0.6l0,0l-1.3,0.8l0,0c-0.5,0.3-0.8,0.6-1,1.1l0,0l0,0C515.2,587.7,515.3,588.1,515.6,588.6z M512.5,581.9
					L512.5,581.9L512.5,581.9c0.3,0.5,0.7,0.8,1.1,0.9l0,0l0,0c0.4,0.1,0.9,0,1.5-0.3l0,0l0,0c1.1-0.6,1.3-1.5,0.7-2.5l0,0l0,0
					c-0.6-1.1-1.5-1.4-2.6-0.7l0,0l0,0c-0.5,0.3-0.9,0.7-1,1.1l0,0l0,0C512.1,580.9,512.2,581.4,512.5,581.9z M440.6,620.3l4.3,7.4
					l-1.1,0.6l-4.3-7.4L440.6,620.3z M438.2,619L438.2,619L438.2,619c-0.1-0.3-0.2-0.5-0.1-0.7l0,0l0,0c0.1-0.2,0.2-0.3,0.4-0.5l0,0
					l0,0c0.2-0.1,0.4-0.1,0.6-0.1l0,0l0,0c0.2,0,0.4,0.2,0.5,0.4l0,0l0,0c0.1,0.3,0.2,0.5,0.1,0.7l0,0l0,0c-0.1,0.2-0.2,0.4-0.4,0.5
					l0,0l0,0c-0.2,0.1-0.4,0.1-0.6,0.1l0,0l0,0C438.5,619.4,438.4,619.3,438.2,619z M450.9,621.6L450.9,621.6L450.9,621.6
					c0.4,0.7,0.4,1.4,0.2,2l0,0l0,0c-0.3,0.7-0.9,1.3-1.8,1.8l0,0l0,0c-1,0.6-1.8,0.9-2.6,0.9l0,0l-0.6-1l0,0c0.5,0,0.9-0.1,1.4-0.2
					l0,0l0,0c0.5-0.1,0.9-0.3,1.3-0.5l0,0l0,0c0.6-0.3,1-0.7,1.2-1.1l0,0l0,0c0.2-0.4,0.2-0.7,0-1.1l0,0l0,0
					c-0.2-0.3-0.4-0.5-0.8-0.5l0,0l0,0c-0.4-0.1-1,0-1.9,0.1l0,0l0,0c-0.8,0.1-1.5,0.2-1.9,0.2l0,0l0,0c-0.4,0-0.7-0.1-1-0.3l0,0
					l0,0c-0.3-0.2-0.5-0.4-0.7-0.8l0,0l0,0c-0.3-0.6-0.4-1.2-0.1-1.9l0,0l0,0c0.3-0.6,0.9-1.2,1.7-1.7l0,0l0,0
					c0.8-0.5,1.7-0.7,2.6-0.9l0,0l0.1,1.1l0,0c-0.9,0.1-1.7,0.4-2.3,0.7l0,0l0,0c-0.5,0.3-0.9,0.6-1.1,0.9l0,0l0,0
					c-0.2,0.3-0.2,0.6,0,0.9l0,0l0,0c0.1,0.2,0.3,0.3,0.4,0.4l0,0l0,0c0.2,0.1,0.4,0.1,0.7,0.1l0,0l0,0c0.3,0,0.8-0.1,1.6-0.2l0,0
					l0,0c1.1-0.2,1.8-0.2,2.3-0.1l0,0l0,0C450.2,620.8,450.6,621.1,450.9,621.6z M458.1,615.2L458.1,615.2L458.1,615.2
					c0.7,1.2,0.9,2.3,0.7,3.4l0,0l0,0c-0.2,1-0.9,1.9-1.9,2.5l0,0l0,0c-0.7,0.4-1.3,0.6-2,0.6l0,0l0,0c-0.7,0-1.3-0.2-2-0.7l0,0l0,0
					c-0.6-0.4-1.1-1-1.6-1.8l0,0l0,0c-0.7-1.2-0.9-2.3-0.7-3.3l0,0l0,0c0.2-1,0.9-1.8,1.9-2.5l0,0l0,0c1-0.6,2.1-0.7,3.1-0.4l0,0
					l0,0C456.6,613.2,457.4,614,458.1,615.2z M452.5,618.4L452.5,618.4L452.5,618.4c0.5,0.9,1.2,1.6,1.8,1.8l0,0l0,0
					c0.7,0.3,1.4,0.2,2.1-0.2l0,0l0,0c0.7-0.4,1.1-1,1.2-1.7l0,0l0,0c0.1-0.7-0.1-1.5-0.7-2.5l0,0l0,0c-0.5-0.9-1.1-1.5-1.8-1.8l0,0
					l0,0c-0.7-0.3-1.4-0.2-2.1,0.2l0,0l0,0c-0.7,0.4-1.2,1-1.2,1.7l0,0l0,0C451.7,616.6,451.9,617.5,452.5,618.4z M465.2,616
					l-1.3,0.8l-7.1-5.8l1.2-0.7l4.1,3.5l0,0c1,0.8,1.6,1.4,1.8,1.6l0,0h0.1l0,0c-0.1-0.3-0.2-0.9-0.4-1.8l0,0l0,0
					c-0.2-0.9-0.5-2.9-1.1-5.9l0,0l1.2-0.7L465.2,616z M472.4,612L472.4,612L472.4,612c-1.1,0.6-2.2,0.8-3.2,0.5l0,0l0,0
					c-1-0.3-1.9-1-2.6-2.2l0,0l0,0c-0.7-1.2-0.9-2.3-0.8-3.4l0,0l0,0c0.2-1,0.8-1.9,1.8-2.4l0,0l0,0c0.9-0.5,1.8-0.7,2.7-0.4l0,0
					l0,0c0.9,0.3,1.6,0.9,2.2,2l0,0l0.4,0.7l-5.1,3l0,0c0.5,0.9,1.1,1.4,1.8,1.6l0,0l0,0c0.7,0.2,1.4,0.1,2.2-0.3l0,0l0,0
					c0.8-0.5,1.5-1.1,2.1-1.9l0,0l0.6,1l0,0c-0.3,0.4-0.6,0.7-0.9,1l0,0l0,0C473.3,611.5,472.9,611.8,472.4,612z M468.2,605.5
					L468.2,605.5L468.2,605.5c-0.6,0.3-1,0.8-1.1,1.4l0,0l0,0c-0.1,0.6,0,1.2,0.3,2l0,0l3.9-2.2l0,0c-0.4-0.7-0.9-1.2-1.4-1.4l0,0
					l0,0C469.3,605.1,468.8,605.1,468.2,605.5z M476,599.7L476,599.7L476,599.7c0.3-0.2,0.6-0.3,0.9-0.4l0,0l0.4,1.1l0,0
					c-0.3,0.1-0.6,0.2-0.9,0.4l0,0l0,0c-0.6,0.3-1,0.9-1.1,1.6l0,0l0,0c-0.1,0.7,0,1.5,0.4,2.2l0,0l2.3,4l-1.1,0.6l-4.3-7.4l0.9-0.5
					l0.9,1.3h0.1l0,0c0-0.6,0.1-1.2,0.4-1.7l0,0l0,0C475.2,600.4,475.5,600,476,599.7z M486.2,601.2L486.2,601.2L486.2,601.2
					c0.4,0.7,0.4,1.4,0.2,2l0,0l0,0c-0.3,0.7-0.9,1.3-1.8,1.8l0,0l0,0c-1,0.6-1.8,0.9-2.6,0.9l0,0l-0.6-1l0,0c0.5,0,0.9-0.1,1.4-0.2
					l0,0l0,0c0.5-0.1,0.9-0.3,1.3-0.5l0,0l0,0c0.6-0.3,1-0.7,1.2-1.1l0,0l0,0c0.2-0.4,0.2-0.7,0-1.1l0,0l0,0
					c-0.2-0.3-0.4-0.5-0.8-0.5l0,0l0,0c-0.4-0.1-1,0-1.9,0.1l0,0l0,0c-0.8,0.1-1.5,0.2-1.9,0.2l0,0l0,0c-0.4,0-0.7-0.1-1-0.3l0,0
					l0,0c-0.3-0.2-0.5-0.4-0.7-0.7l0,0l0,0c-0.3-0.6-0.4-1.2-0.1-1.9l0,0l0,0c0.3-0.6,0.9-1.2,1.7-1.7l0,0l0,0
					c0.8-0.5,1.7-0.7,2.6-0.9l0,0l0.1,1.1l0,0c-0.9,0.1-1.7,0.4-2.3,0.7l0,0l0,0c-0.5,0.3-0.9,0.6-1.1,0.9l0,0l0,0
					c-0.2,0.3-0.2,0.6,0,0.9l0,0l0,0c0.1,0.2,0.3,0.3,0.4,0.4l0,0l0,0c0.2,0.1,0.4,0.1,0.7,0.1l0,0l0,0c0.3,0,0.8-0.1,1.6-0.2l0,0
					l0,0c1.1-0.2,1.8-0.2,2.3-0.1l0,0l0,0C485.5,600.4,485.9,600.7,486.2,601.2z M492.4,600.5L492.4,600.5L492.4,600.5
					c-1.1,0.6-2.2,0.8-3.2,0.5l0,0l0,0c-1-0.3-1.9-1-2.6-2.2l0,0l0,0c-0.7-1.2-0.9-2.3-0.8-3.4l0,0l0,0c0.2-1,0.8-1.9,1.8-2.4l0,0
					l0,0c0.9-0.5,1.8-0.7,2.7-0.4l0,0l0,0c0.9,0.3,1.6,0.9,2.2,1.9l0,0l0.4,0.7l-5.1,2.9l0,0c0.5,0.9,1.1,1.4,1.8,1.6l0,0l0,0
					c0.7,0.2,1.4,0.1,2.2-0.3l0,0l0,0c0.8-0.5,1.5-1.1,2.1-1.9l0,0l0.6,1l0,0c-0.3,0.4-0.6,0.7-0.9,1l0,0l0,0
					C493.3,599.9,492.9,600.2,492.4,600.5z M488.2,593.9L488.2,593.9L488.2,593.9c-0.6,0.3-1,0.8-1.1,1.4l0,0l0,0
					c-0.1,0.6,0,1.2,0.3,2l0,0l3.9-2.2l0,0c-0.4-0.7-0.9-1.2-1.4-1.4l0,0l0,0C489.4,593.5,488.8,593.6,488.2,593.9z M496.4,597
					L496.4,597L496.4,597c-0.2-0.3-0.2-0.6-0.2-0.8l0,0l0,0c0-0.2,0.2-0.4,0.5-0.6l0,0l0,0c0.3-0.2,0.5-0.2,0.7-0.1l0,0l0,0
					c0.2,0.1,0.4,0.3,0.6,0.6l0,0l0,0c0.2,0.3,0.2,0.6,0.2,0.8l0,0l0,0c-0.1,0.2-0.2,0.4-0.5,0.6l0,0l0,0c-0.2,0.1-0.5,0.2-0.7,0.1
					l0,0l0,0C496.8,597.5,496.6,597.4,496.4,597z M436.7,632.5l-1.3,0.8l-3.9-3.6l0,0c-0.2-0.2-0.7-0.7-1.5-1.5l0,0h-0.1l0,0
					c0.3,0.9,0.5,1.6,0.6,2.1l0,0l1.1,5.1l-1.3,0.8L424,630l1.2-0.7l0,0c1.6,1.6,2.7,2.8,3.6,3.6l0,0l0,0c0.8,0.8,1.3,1.4,1.6,1.7
					l0,0h0.1l0,0c-0.1-0.3-0.2-0.7-0.3-1.1l0,0l0,0c-0.1-0.5-0.2-0.9-0.3-1.1l0,0l-1.1-5l1.2-0.7l3.8,3.5l0,0
					c0.7,0.6,1.2,1.2,1.6,1.7l0,0h0.1l0,0c-0.1-0.2-0.2-0.5-0.3-0.8l0,0l0,0c-0.1-0.4-0.7-2.5-1.7-6.3l0,0l1.2-0.7L436.7,632.5z
					 M439.5,629.9L439.5,629.9L439.5,629.9c-0.2-0.3-0.2-0.6-0.2-0.8l0,0l0,0c0-0.2,0.2-0.4,0.5-0.6l0,0l0,0
					c0.3-0.2,0.5-0.2,0.7-0.1l0,0l0,0c0.2,0.1,0.4,0.3,0.6,0.6l0,0l0,0c0.2,0.3,0.2,0.6,0.2,0.8l0,0l0,0c-0.1,0.2-0.2,0.4-0.5,0.6
					l0,0l0,0c-0.2,0.1-0.5,0.2-0.7,0.1l0,0l0,0C439.9,630.4,439.7,630.2,439.5,629.9z M425.9,638.7l-1.3,0.8l-3.9-3.6l0,0
					c-0.2-0.2-0.7-0.7-1.5-1.5l0,0h-0.1l0,0c0.3,0.9,0.5,1.6,0.6,2.1l0,0l1.1,5.1l-1.3,0.8l-6.3-6.2l1.2-0.7l0,0
					c1.6,1.6,2.7,2.8,3.6,3.6l0,0l0,0c0.8,0.8,1.3,1.4,1.6,1.7l0,0h0.1l0,0c-0.1-0.3-0.2-0.7-0.3-1.1l0,0l0,0
					c-0.1-0.5-0.2-0.9-0.3-1.1l0,0l-1.1-5l1.2-0.7l3.8,3.5l0,0c0.7,0.6,1.2,1.2,1.6,1.7l0,0h0.1l0,0c-0.1-0.2-0.2-0.5-0.3-0.8l0,0
					l0,0c-0.1-0.4-0.7-2.5-1.7-6.3l0,0l1.2-0.7L425.9,638.7z M415.1,645l-1.3,0.8l-3.9-3.6l0,0c-0.2-0.2-0.7-0.7-1.5-1.5l0,0h-0.1
					l0,0c0.3,0.9,0.5,1.6,0.6,2.1l0,0l1.1,5.1l-1.3,0.8l-6.3-6.2l1.2-0.7l0,0c1.6,1.6,2.7,2.8,3.6,3.6l0,0l0,0
					c0.8,0.8,1.3,1.4,1.6,1.7l0,0h0.1l0,0c-0.1-0.3-0.2-0.7-0.3-1.1l0,0l0,0c-0.1-0.5-0.2-0.9-0.3-1.1l0,0l-1.1-5l1.2-0.7l3.8,3.5
					l0,0c0.7,0.6,1.2,1.2,1.6,1.7l0,0h0.1l0,0c-0.1-0.2-0.2-0.5-0.3-0.8l0,0l0,0c-0.1-0.4-0.7-2.5-1.7-6.3l0,0l1.2-0.7L415.1,645z"
					/>
			</g>
		</g>
	</g>
</g>
<g>
	<g>
		<defs>
			<polygon id="SVGID_00000000902455957954926530000012160037139651653294_" points="33.3,198.3 33.3,522.8 314.3,685 595.3,522.8 
				595.3,198.3 314.3,36 			"/>
		</defs>
		<clipPath id="SVGID_00000058575351587469275850000015233569154916440221_">
			<use xlink:href="#SVGID_00000000902455957954926530000012160037139651653294_"  style="overflow:visible;"/>
		</clipPath>
		<g style="clip-path:url(#SVGID_00000058575351587469275850000015233569154916440221_);">
			<g>
				<defs>
					<rect id="SVGID_00000007399574128381566740000008167855530966293401_" x="-166.6" y="-83" width="954.8" height="700.8"/>
				</defs>
				<clipPath id="SVGID_00000140715813281089069810000001978486135042617994_">
					<use xlink:href="#SVGID_00000007399574128381566740000008167855530966293401_"  style="overflow:visible;"/>
				</clipPath>
				
					<g id="DaMMQ7_00000113312975194028991410000003343607470330901669_" style="clip-path:url(#SVGID_00000140715813281089069810000001978486135042617994_);">
					
						<image style="overflow:visible;enable-background:new    ;" width="1337" height="1075" id="DaMMQ7_00000010289531680778340090000007310514549330215065_" xlink:href="E20D8225D214212B.jpg"  transform="matrix(1.5335 0 0 1.5268 -846.0695 -326.9459)">
					</image>
				</g>
			</g>
		</g>
	</g>
</g>
<text transform="matrix(1 0 0 1 129.7368 528.3213)" class="st6 st7 st8">isoorbi</text>
</svg>
